<?xml version="1.0" standalone="no"?>
<!DOCTYPE svg PUBLIC "-//W3C//DTD SVG 20010904//EN"
 "http://www.w3.org/TR/2001/REC-SVG-20010904/DTD/svg10.dtd">
<svg version="1.0" xmlns="http://www.w3.org/2000/svg"
 width="1085.000000pt" height="257.000000pt" viewBox="0 0 1085.000000 257.000000"
 preserveAspectRatio="xMidYMid meet">

<g transform="translate(0.000000,257.000000) scale(0.100000,-0.100000)"
fill="#ffffff" stroke="none">
<path d="M920 1958 l0 -331 -29 39 c-40 54 -68 79 -126 107 -66 32 -130 41
-206 27 -82 -15 -143 -47 -202 -107 -131 -131 -192 -408 -157 -718 35 -307
153 -464 372 -495 89 -13 136 -6 209 31 57 28 97 67 126 123 l17 31 7 -40 c4
-22 8 -57 8 -77 l1 -38 125 0 125 0 0 890 0 890 -135 0 -135 0 0 -332z m-112
-400 c29 -20 50 -46 74 -95 l33 -67 3 -223 c4 -247 -3 -292 -57 -373 -48 -72
-91 -95 -176 -95 -61 0 -78 4 -112 27 -86 56 -117 181 -110 438 3 143 8 187
25 240 24 73 78 145 126 166 50 23 146 13 194 -18z"/>
<path d="M6258 2167 l-128 -60 0 -159 0 -158 -130 0 -130 0 0 -110 0 -110 130
0 129 0 3 -422 c3 -417 3 -424 26 -473 47 -101 139 -163 277 -185 105 -17 238
2 328 47 l47 23 0 106 c0 122 7 118 -105 70 -45 -19 -77 -26 -130 -26 -91 0
-132 20 -162 80 -23 43 -23 50 -23 412 l0 368 200 0 200 0 0 110 0 110 -200 0
-200 0 -2 218 -3 218 -127 -59z"/>
<path d="M4988 1809 c-148 -20 -255 -86 -304 -186 -25 -51 -29 -69 -29 -148 0
-73 4 -100 23 -140 44 -95 150 -179 320 -254 154 -68 213 -101 263 -148 42
-39 49 -51 49 -84 0 -121 -192 -175 -406 -114 -49 14 -131 46 -182 70 -52 25
-98 45 -103 45 -6 0 -8 -51 -7 -122 l3 -123 75 -37 c255 -127 633 -108 803 41
18 16 46 54 62 83 25 45 30 67 33 146 4 88 3 96 -27 157 -55 111 -107 147
-452 308 -115 53 -165 95 -179 148 -16 59 7 104 66 131 82 36 257 15 408 -48
105 -44 96 -51 96 75 l0 112 -53 25 c-122 55 -318 83 -459 63z"/>
<path d="M1885 1799 c-175 -26 -296 -112 -373 -265 -49 -98 -63 -164 -69 -336
-10 -273 40 -443 165 -566 108 -107 215 -145 407 -146 147 0 243 21 340 72
l70 37 3 123 c1 73 -1 122 -7 122 -5 0 -42 -18 -83 -39 -142 -77 -318 -110
-420 -79 -50 15 -132 88 -159 140 -24 47 -49 155 -49 216 l0 42 386 0 387 0
-5 143 c-5 114 -11 157 -30 218 -80 245 -281 359 -563 318z m195 -228 c53 -28
92 -83 111 -159 9 -37 15 -70 12 -74 -2 -5 -112 -8 -244 -8 -270 0 -252 -7
-218 84 25 69 91 143 144 161 59 21 153 19 195 -4z"/>
<path d="M7495 1800 c-227 -32 -366 -181 -411 -443 -21 -118 -15 -401 10 -492
53 -192 163 -314 326 -358 137 -38 306 -28 418 23 84 39 161 114 207 201 84
160 106 472 49 693 -47 183 -156 308 -313 356 -71 23 -204 32 -286 20z m201
-219 c100 -46 153 -174 161 -391 6 -156 -10 -264 -53 -360 -47 -104 -115 -145
-229 -138 -150 9 -226 135 -242 397 -14 238 48 431 156 488 56 29 147 31 207
4z"/>
<path d="M9000 1797 c-103 -24 -188 -84 -248 -175 -27 -40 -38 -50 -39 -36 -1
10 -5 58 -8 107 l-7 87 -114 0 -114 0 0 -635 0 -635 130 0 130 0 0 343 c0 307
2 352 19 420 25 95 51 147 104 205 56 61 125 92 203 92 71 0 197 -31 265 -65
81 -41 80 -42 77 97 l-3 122 -55 28 c-94 47 -244 67 -340 45z"/>
<path d="M10015 1799 c-175 -26 -296 -112 -373 -265 -49 -98 -63 -164 -69
-336 -10 -273 40 -443 165 -566 108 -107 215 -145 407 -146 147 0 243 21 340
72 l70 37 3 123 c1 73 -1 122 -7 122 -5 0 -42 -18 -83 -39 -142 -77 -318 -110
-420 -79 -50 15 -132 88 -159 140 -24 47 -49 155 -49 216 l0 42 386 0 387 0
-5 143 c-5 114 -11 157 -30 218 -80 245 -281 359 -563 318z m195 -228 c53 -28
92 -83 111 -159 9 -37 15 -70 12 -74 -2 -5 -112 -8 -244 -8 -270 0 -252 -7
-218 84 25 69 91 143 144 161 59 21 153 19 195 -4z"/>
<path d="M2640 1783 c0 -5 103 -291 228 -638 l228 -630 129 0 129 0 223 630
c123 347 223 633 223 638 0 4 -62 7 -138 7 l-138 0 -132 -407 c-73 -225 -139
-445 -148 -491 -10 -45 -19 -80 -21 -78 -3 3 -14 44 -24 93 -11 48 -79 267
-151 486 l-131 397 -138 0 c-77 0 -139 -3 -139 -7z"/>
</g>
</svg>
