<?xml version="1.0" standalone="no"?>
<!DOCTYPE svg PUBLIC "-//W3C//DTD SVG 20010904//EN"
 "http://www.w3.org/TR/2001/REC-SVG-20010904/DTD/svg10.dtd">
<svg version="1.0" xmlns="http://www.w3.org/2000/svg"
 width="433.000000pt" height="433.000000pt" viewBox="0 0 433.000000 433.000000"
 preserveAspectRatio="xMidYMid meet">

<g transform="translate(0.000000,433.000000) scale(0.100000,-0.100000)"
fill="#333333" stroke="none">
<path d="M1855 4324 c-11 -3 -67 -14 -125 -25 -232 -45 -514 -158 -729 -292
-87 -54 -289 -216 -371 -297 -81 -82 -243 -284 -297 -371 -159 -256 -273 -568
-318 -868 -22 -155 -20 -458 5 -614 49 -304 156 -593 313 -846 54 -87 216
-289 297 -371 82 -81 284 -243 371 -297 257 -160 560 -270 874 -318 147 -23
432 -23 575 -1 325 51 620 158 879 319 90 55 290 217 373 301 85 85 241 280
295 367 133 214 241 484 293 729 43 208 54 529 25 731 -45 300 -159 612 -318
868 -54 87 -216 289 -297 371 -82 81 -284 243 -371 297 -159 99 -386 201 -564
253 -201 59 -234 62 -570 66 -176 1 -329 0 -340 -2z m705 -1589 l5 -360 83 -3
82 -3 0 -44 0 -45 -119 0 c-102 0 -122 3 -142 19 l-24 19 -5 344 -5 343 -67 3
-68 3 0 38 c0 21 3 41 7 45 4 3 61 5 127 4 l121 -3 5 -360z m755 -45 l0 -405
-52 -3 c-43 -2 -53 0 -53 12 0 21 -8 20 -55 -4 -46 -24 -139 -27 -188 -6 -74
30 -121 120 -133 256 -9 101 32 236 88 286 65 60 153 71 227 29 23 -14 47 -25
52 -25 5 0 9 61 9 136 l0 135 53 -3 52 -3 0 -405z m-1827 357 c29 -16 32 -21
32 -67 0 -27 -4 -52 -10 -55 -5 -3 -27 3 -49 14 -136 70 -281 40 -281 -57 0
-53 42 -91 150 -136 162 -68 230 -142 230 -249 0 -87 -37 -149 -115 -190 -55
-29 -228 -36 -307 -13 -83 24 -108 48 -108 102 0 58 17 64 79 31 74 -41 155
-59 208 -46 57 12 99 34 107 54 3 9 6 34 6 56 0 57 -36 90 -179 162 -92 46
-133 72 -155 100 -29 36 -31 44 -31 120 0 71 3 86 24 115 14 17 48 44 75 58
48 24 58 25 171 22 90 -3 128 -8 153 -21z m517 -176 c51 -24 88 -63 117 -126
20 -44 23 -65 22 -170 0 -107 -3 -126 -26 -175 -45 -98 -101 -130 -225 -130
-92 0 -143 21 -188 77 -33 42 -65 151 -65 225 0 54 25 169 45 208 17 33 69 78
110 96 45 20 162 17 210 -5z m-346 -987 c67 -20 122 -74 145 -145 28 -89 40
-234 28 -346 -14 -120 -24 -156 -61 -214 -44 -70 -97 -92 -210 -87 -80 3 -94
6 -133 33 -66 46 -95 114 -109 251 -14 143 -1 308 31 381 51 119 170 169 309
127z m1123 -96 l3 -93 98 -3 98 -3 -3 -42 -3 -42 -95 -5 -95 -5 -3 -170 c-2
-108 2 -179 9 -196 16 -40 56 -53 119 -40 78 17 80 16 80 -29 0 -54 -32 -70
-135 -70 -88 0 -121 14 -162 67 l-28 36 -3 203 -3 203 -57 3 -57 3 -3 42 -3
42 58 3 58 3 5 70 5 70 45 22 c25 12 50 22 57 22 9 1 13 -27 15 -91z m-730
-317 c3 -205 4 -221 24 -248 50 -67 139 -47 183 42 24 47 26 61 29 238 l4 187
54 0 54 0 0 -295 0 -295 -55 0 c-52 0 -55 1 -55 25 l0 25 -47 -30 c-39 -25
-57 -30 -111 -30 -80 0 -126 21 -160 73 l-27 40 -3 244 -3 243 55 0 54 0 4
-219z"/>
<path d="M3019 2757 c-47 -31 -61 -86 -57 -214 3 -84 7 -107 24 -130 32 -43
69 -58 113 -44 53 15 78 47 98 123 15 58 16 76 5 138 -17 97 -33 127 -80 139
-53 15 -65 14 -103 -12z"/>
<path d="M1841 2779 c-50 -20 -81 -101 -81 -208 0 -98 34 -175 86 -197 107
-45 184 42 184 205 0 99 -30 178 -76 197 -38 16 -78 17 -113 3z"/>
<path d="M1525 1786 c-39 -17 -49 -30 -71 -96 -15 -45 -19 -83 -18 -205 1
-130 4 -158 23 -208 27 -69 58 -92 118 -91 96 2 138 96 138 309 -1 178 -32
271 -97 294 -39 14 -56 13 -93 -3z"/>
</g>
</svg>
