<?xml version="1.0" standalone="no"?>
<!DOCTYPE svg PUBLIC "-//W3C//DTD SVG 20010904//EN"
 "http://www.w3.org/TR/2001/REC-SVG-20010904/DTD/svg10.dtd">
<svg version="1.0" xmlns="http://www.w3.org/2000/svg"
 width="860.000000pt" height="1100.000000pt" viewBox="0 0 860.000000 1100.000000"
 preserveAspectRatio="xMidYMid meet">

<g transform="translate(0.000000,1100.000000) scale(0.100000,-0.100000)"
fill="#595959" stroke="none">
<path d="M0 5500 l0 -5500 4300 0 4300 0 0 5500 0 5500 -4300 0 -4300 0 0
-5500z m5118 3428 c-3 -43 -3 -43 -45 -46 l-43 -3 0 45 0 46 46 0 45 0 -3 -42z
m-3168 -68 l0 -50 40 0 c39 0 40 -1 40 -35 0 -34 -1 -35 -40 -35 l-40 0 0
-102 c0 -57 4 -109 9 -117 6 -9 19 -12 40 -8 30 6 31 5 31 -27 0 -38 -12 -46
-69 -46 -24 0 -49 8 -65 21 -26 20 -26 22 -26 150 l0 129 -35 0 c-33 0 -35 2
-35 35 0 33 2 35 35 35 l35 0 0 50 0 50 40 0 40 0 0 -50z m358 -66 c57 -42 96
-173 56 -188 -9 -3 -65 -6 -125 -6 -60 0 -109 -2 -109 -4 0 -21 26 -66 44 -75
37 -20 69 -10 95 32 22 34 28 37 69 37 43 0 44 -1 37 -27 -10 -43 -54 -93 -94
-110 -47 -20 -133 -13 -168 13 -50 38 -67 70 -71 140 -9 140 58 219 181 211
37 -2 67 -10 85 -23z m360 6 c32 -20 32 -20 65 0 38 24 97 26 137 5 51 -26 60
-58 60 -215 l0 -140 -45 0 -45 0 0 131 c0 137 -8 169 -41 169 -61 0 -79 -43
-79 -191 l0 -109 -40 0 -40 0 0 123 c0 137 -10 170 -52 175 -18 2 -32 -5 -47
-24 -19 -24 -21 -40 -21 -150 l0 -124 -45 0 -45 0 0 180 0 181 60 -2 c33 -1
63 1 67 4 13 14 79 6 111 -13z m600 -7 c52 -39 66 -69 70 -148 7 -129 -50
-205 -152 -205 -26 0 -56 5 -67 10 -18 10 -19 7 -19 -60 l0 -70 -45 0 -45 0 0
245 0 246 65 -3 c35 -1 68 2 72 6 13 13 94 -1 121 -21z m329 16 c118 -44 151
-220 60 -316 -38 -41 -85 -57 -149 -51 -58 6 -95 30 -125 84 -32 55 -32 153 0
209 38 69 138 103 214 74z m353 -29 c5 -33 6 -34 18 -13 29 52 163 68 221 26
39 -30 50 -74 50 -216 l1 -128 -57 -1 c-32 0 -88 -1 -125 -1 -57 -2 -70 1 -92
22 -14 13 -27 40 -31 61 -14 86 56 150 163 150 56 0 63 9 36 48 -10 14 -25 22
-45 22 -25 0 -33 -6 -42 -30 -10 -27 -15 -30 -58 -30 -43 0 -46 2 -42 23 4 21
0 23 -34 25 -71 4 -83 -22 -83 -172 l0 -116 -45 0 -45 0 0 181 0 180 59 -3
c33 -1 63 1 67 5 5 4 24 7 44 5 32 -3 36 -6 40 -38z m612 17 c4 -6 24 -57 44
-114 21 -56 40 -100 43 -97 3 2 23 53 46 112 l41 107 47 3 c26 2 47 -1 47 -5
0 -5 -42 -114 -94 -243 l-94 -235 -46 -3 c-28 -2 -46 1 -46 8 0 6 11 38 25 72
l25 61 -51 126 c-28 69 -56 132 -61 139 -16 19 -63 14 -84 -9 -16 -18 -20 -40
-22 -145 l-4 -124 -44 0 -44 0 0 181 0 180 59 -3 c33 -1 63 1 68 6 11 11 136
-4 145 -17z m556 -164 l2 -183 -45 0 -45 0 0 186 0 185 43 -3 42 -3 3 -182z
m300 167 c32 -20 32 -20 65 0 38 24 97 26 137 5 51 -26 60 -58 60 -215 l0
-140 -45 0 -45 0 0 131 c0 137 -8 169 -41 169 -61 0 -79 -43 -79 -191 l0 -109
-40 0 -40 0 0 123 c0 137 -10 170 -52 175 -18 2 -32 -5 -47 -24 -19 -24 -21
-40 -21 -150 l0 -124 -45 0 -45 0 0 180 0 181 60 -2 c33 -1 63 1 67 4 13 14
79 6 111 -13z m570 -7 c40 -30 51 -74 51 -216 l1 -128 -57 -1 c-32 0 -88 -1
-125 -1 -57 -2 -70 1 -92 22 -14 13 -27 40 -31 61 -14 86 56 150 163 150 56 0
63 9 36 48 -10 14 -25 22 -45 22 -25 0 -33 -6 -42 -30 -10 -27 -15 -30 -58
-30 -44 0 -47 2 -42 23 10 45 29 71 68 89 51 24 134 20 173 -9z m365 18 l58 0
-3 -205 c-3 -202 -3 -205 -28 -232 -68 -73 -210 -73 -268 1 -12 15 -22 36 -22
46 0 16 8 19 45 19 25 0 45 -4 45 -9 0 -42 98 -57 124 -19 23 32 21 51 -3 38
-11 -5 -42 -10 -69 -10 -60 0 -109 29 -134 80 -26 50 -24 161 3 216 27 56 85
87 149 79 25 -3 71 -5 103 -4z m342 -11 c46 -22 78 -71 89 -133 11 -61 1 -67
-130 -67 -108 0 -114 -1 -114 -20 0 -35 45 -72 83 -68 25 2 36 11 52 40 18 35
24 38 63 38 36 0 42 -3 42 -21 0 -12 -9 -37 -21 -56 -63 -102 -242 -96 -293
11 -84 178 64 356 229 276z"/>
<path d="M2168 8736 c-10 -7 -22 -25 -27 -39 l-11 -27 80 0 79 0 -11 30 c-16
48 -72 66 -110 36z"/>
<path d="M3131 8733 c-43 -35 -47 -158 -6 -203 24 -26 69 -25 94 1 11 12 23
41 27 65 16 111 -50 190 -115 137z"/>
<path d="M3497 8739 c-48 -28 -61 -135 -24 -190 60 -90 164 -4 138 114 -18 75
-63 105 -114 76z"/>
<path d="M4052 8594 c-17 -12 -22 -24 -20 -47 3 -29 7 -32 39 -35 41 -3 65 18
75 66 6 32 6 32 -33 32 -21 0 -49 -7 -61 -16z"/>
<path d="M5852 8594 c-17 -12 -22 -24 -20 -47 3 -29 7 -32 39 -35 41 -3 65 18
75 66 6 32 6 32 -33 32 -21 0 -49 -7 -61 -16z"/>
<path d="M6201 8726 c-32 -34 -39 -127 -14 -176 15 -29 24 -36 54 -38 52 -4
73 23 77 107 4 61 2 70 -23 99 -32 38 -63 41 -94 8z"/>
<path d="M6565 8725 c-45 -44 -34 -55 50 -55 83 0 91 7 54 54 -27 34 -71 35
-104 1z"/>
</g>
</svg>
